<?xml version="1.0" encoding="utf-8"?>
<!-- Generator: Adobe Illustrator 19.1.0, SVG Export Plug-In . SVG Version: 6.00 Build 0)  -->
<svg version="1.1" id="Слой_1" xmlns="http://www.w3.org/2000/svg" xmlns:xlink="http://www.w3.org/1999/xlink" x="0px" y="0px"
	 viewBox="0 0 49.3 13.2" style="enable-background:new 0 0 49.3 13.2;" xml:space="preserve">
<style type="text/css">
	.st0{fill:#FFFFFF;}
</style>
<g>
	<g>
		<path class="st0" d="M48.9,0C34,0.1,19,2.5,4.8,7.3c-2,0.7-0.1,1,1,0.6C19,3.4,33.1,1.2,47,1.1C47.6,1.1,50.3,0,48.9,0L48.9,0z"/>
	</g>
</g>
<g>
	<g>
		<path class="st0" d="M4.7,1.5C3.1,4.2,1.6,6.8,0,9.5c-0.1,0.2,0.1,0.3,0.2,0.3C3,10.9,5.7,12,8.4,13.2c0.7,0.3,3.3-0.8,2.4-1.2
			c-1.4-0.6-2.7-1.1-4.1-1.7c-1-0.4-2-0.8-3-1.2C3.5,9,3.3,8.9,3,8.8C2.4,8.6,3,8.7,2.9,9c0.3-1.3,1.8-3,2.4-4.2
			C6.1,3.5,6.8,2.3,7.6,1C7.8,0.6,5.1,0.7,4.7,1.5L4.7,1.5z"/>
	</g>
</g>
</svg>
