<?xml version="1.0" encoding="utf-8"?>
<!-- Generator: Adobe Illustrator 19.1.0, SVG Export Plug-In . SVG Version: 6.00 Build 0)  -->
<svg version="1.1" id="Слой_1" xmlns="http://www.w3.org/2000/svg" xmlns:xlink="http://www.w3.org/1999/xlink" x="0px" y="0px"
	 viewBox="0 0 50.1 14.4" style="enable-background:new 0 0 50.1 14.4;" xml:space="preserve">
<style type="text/css">
	.st0{fill:#FFFFFF;}
</style>
<g>
	<g>
		<path class="st0" d="M44.1,5.2C29.6,5.4,14.9,7.7,1.1,12.3c-1.7,0.6-1.2,2.5,0.5,2c13.6-4.6,27.9-6.8,42.3-6.9
			C45.5,7.3,46.1,5.2,44.1,5.2L44.1,5.2z"/>
	</g>
</g>
<g>
	<g>
		<path class="st0" d="M43.9,12.4c2-2.3,4-4.7,6-7C50,5.3,50.1,5,50,4.9c-2.5-1.6-5-3.2-7.4-4.8c-0.8-0.5-3.4,0.7-2.7,1.1
			c1.3,0.8,2.6,1.7,3.9,2.5c0.8,0.5,1.6,1,2.4,1.6c0.6,0.4,0.9,0.9,1.1,0.2c-0.1,0.3-0.8,1-1,1.2c-0.7,0.8-1.3,1.5-2,2.3
			c-1,1.2-2,2.3-3,3.5C40.5,13.3,43.4,13.1,43.9,12.4L43.9,12.4z"/>
	</g>
</g>
</svg>
