<?xml version="1.0" encoding="utf-8"?>
<!-- Generator: Adobe Illustrator 19.1.0, SVG Export Plug-In . SVG Version: 6.00 Build 0)  -->
<svg version="1.1" id="Слой_1" xmlns="http://www.w3.org/2000/svg" xmlns:xlink="http://www.w3.org/1999/xlink" x="0px" y="0px"
	 viewBox="0 0 49.3 13.4" style="enable-background:new 0 0 49.3 13.4;" xml:space="preserve">
<style type="text/css">
	.st0{fill:#FFFFFF;}
</style>
<g>
	<g>
		<path class="st0" d="M48.9,12.2c-14.4-0.1-28.8-2.4-42.4-7C5.8,5,3.2,6.1,4.1,6.4c13.8,4.6,28.4,6.9,42.9,7
			C47.7,13.4,50.3,12.2,48.9,12.2L48.9,12.2z"/>
	</g>
</g>
<g>
	<g>
		<path class="st0" d="M7.4,11.5c-1.6-2.7-3.1-5.3-4.7-8C2.5,4,2.3,4.4,2,4.8c2.7-1.1,5.4-2.2,8.2-3.3c1.9-0.8,0.2-1.9-1.2-1.3
			C6.3,1.3,3.6,2.4,0.8,3.5C0.4,3.7-0.2,4.2,0.1,4.7c1.6,2.7,3.1,5.3,4.7,8C5.3,13.6,8.1,12.6,7.4,11.5L7.4,11.5z"/>
	</g>
</g>
</svg>
