<?xml version="1.0" encoding="utf-8"?>
<!-- Generator: Adobe Illustrator 19.1.0, SVG Export Plug-In . SVG Version: 6.00 Build 0)  -->
<svg version="1.1" id="Слой_1" xmlns="http://www.w3.org/2000/svg" xmlns:xlink="http://www.w3.org/1999/xlink" x="0px" y="0px"
	 viewBox="0 0 125 28.2" style="enable-background:new 0 0 125 28.2;" xml:space="preserve">
<style type="text/css">
	.st0{fill-rule:evenodd;clip-rule:evenodd;fill:#231F20;}
</style>
<g>
	<polygon class="st0" points="38.1,28 40.8,28 40.8,27.3 38.9,27.3 38.9,23 38.1,23 38.1,28 	"/>
	<path class="st0" d="M50.8,25.5c0-0.7-0.3-1.4-0.8-1.9c-0.5-0.4-1.1-0.7-1.8-0.7c-0.7,0-1.4,0.3-1.9,0.7c-0.5,0.5-0.8,1.2-0.8,1.9
		c0,0.7,0.3,1.3,0.8,1.8c0.5,0.5,1.2,0.8,1.9,0.8c0.7,0,1.3-0.3,1.8-0.8C50.5,26.8,50.8,26.2,50.8,25.5L50.8,25.5z M50,25.5
		c0,0.5-0.2,0.9-0.6,1.3c-0.3,0.3-0.7,0.5-1.2,0.5c-0.5,0-1-0.2-1.3-0.5c-0.3-0.4-0.5-0.8-0.5-1.3c0-0.5,0.2-1,0.5-1.3
		c0.3-0.4,0.8-0.6,1.3-0.6c0.5,0,0.9,0.2,1.2,0.6C49.8,24.5,50,25,50,25.5L50,25.5z"/>
	<path class="st0" d="M56.2,28H57v-3.5c0.1,0.2,0.3,0.4,0.5,0.6l3.3,3.1V23H60v3.5c-0.1-0.2-0.3-0.4-0.5-0.6l-3.3-3.1V28L56.2,28z"
		/>
	<path class="st0" d="M66.4,28h1.1c0.9,0,1.6,0.1,2.2-0.4c0.6-0.5,0.9-1.1,0.9-2c0-0.9-0.3-1.6-0.9-2C69.1,23,68.4,23,67.5,23h-1.1
		V28L66.4,28z M67.2,27.3v-3.6h0.3c0.7,0,1.3,0,1.7,0.3c0.4,0.4,0.6,0.8,0.6,1.5c0,0.6-0.2,1.1-0.6,1.4c-0.4,0.4-1,0.3-1.7,0.3H67.2
		L67.2,27.3z"/>
	<path class="st0" d="M81.2,25.5c0-0.7-0.3-1.4-0.8-1.9c-0.5-0.4-1.1-0.7-1.8-0.7c-0.8,0-1.4,0.3-1.9,0.7c-0.5,0.5-0.8,1.2-0.8,1.9
		c0,0.7,0.3,1.3,0.8,1.8c0.5,0.5,1.2,0.8,1.9,0.8c0.7,0,1.3-0.3,1.8-0.8C80.9,26.8,81.2,26.2,81.2,25.5L81.2,25.5z M80.4,25.5
		c0,0.5-0.2,0.9-0.6,1.3c-0.3,0.3-0.8,0.5-1.2,0.5c-0.5,0-1-0.2-1.3-0.5c-0.4-0.4-0.5-0.8-0.5-1.3c0-0.5,0.1-1,0.5-1.3
		c0.3-0.4,0.8-0.6,1.3-0.6c0.4,0,0.9,0.2,1.2,0.6C80.2,24.5,80.4,25,80.4,25.5L80.4,25.5z"/>
	<path class="st0" d="M86.6,28h0.8v-3.5c0.1,0.2,0.3,0.4,0.4,0.6l3.3,3.1V23h-0.7v3.5c-0.2-0.2-0.3-0.4-0.5-0.6l-3.3-3.1V28L86.6,28
		z"/>
	<polygon class="st0" points="8.5,2.1 10.8,2.1 10.8,0.5 5,0.5 5,2.1 7.2,2.1 7.2,12.6 8.5,12.6 8.5,2.1 	"/>
	<polygon class="st0" points="19.4,12.6 24.1,12.6 24.1,10.8 20.7,10.8 20.7,6.9 24.1,6.9 24.1,5.2 20.7,5.2 20.7,2.1 24.1,2.1 
		24.1,0.5 19.4,0.5 19.4,12.6 	"/>
	<path class="st0" d="M33.2,12.6h1.8c1.5,0,2.7,0,3.9-1.2c0.9-1,1.4-2.6,1.4-4.9c0-2.1-0.5-3.8-1.4-4.9c-1-1.1-2.2-1.1-3.9-1.1h-1.8
		V12.6L33.2,12.6z M34.7,10.8V2.2h0.4c1.3,0,2.2,0,2.9,0.8c0.6,0.8,0.9,1.9,0.9,3.5c0,1.5-0.3,2.7-0.9,3.5c-0.7,0.9-1.6,0.8-2.9,0.8
		H34.7L34.7,10.8z"/>
	<path class="st0" d="M60.7,12.6h2.1c1.1,0,1.9-0.1,2.5-0.9c0.4-0.6,0.7-1.5,0.7-2.5c0-1.6-0.6-2.7-1.6-2.9c0.8-0.4,1.2-1.2,1.2-2.5
		c0-1.1-0.3-2-0.8-2.5c-0.5-0.5-1.2-0.6-2-0.6h-2.1V12.6L60.7,12.6z M62,10.9V7.1h0.5c0.5,0,1-0.1,1.5,0.2c0.4,0.3,0.6,0.9,0.6,1.7
		c0,0.6-0.2,1.2-0.5,1.5c-0.3,0.3-0.9,0.3-1.6,0.3H62L62,10.9z M62,5.6V2.1h0.5c1.2,0,1.8,0.3,1.8,1.8c0,1.2-0.6,1.6-1.8,1.6H62
		L62,5.6z"/>
	<path class="st0" d="M80.6,12.6H82L78,0l-4.1,12.6h1.4l1-3.2h3.3L80.6,12.6L80.6,12.6z M76.9,7.8l0.8-2.7c0.1-0.3,0.2-0.7,0.3-1.3
		c0.1,0.6,0.2,1,0.3,1.3l0.9,2.7H76.9L76.9,7.8z"/>
	<polygon class="st0" points="90.4,12.6 91.8,12.6 91.8,6.4 95.1,12.6 96.9,12.6 93.1,5.9 96.5,0.5 94.8,0.5 91.8,5.5 91.8,0.5 
		90.4,0.5 90.4,12.6 	"/>
	<polygon class="st0" points="105.2,12.6 110,12.6 110,10.8 106.7,10.8 106.7,6.9 110,6.9 110,5.2 106.7,5.2 106.7,2.1 110,2.1 
		110,0.5 105.2,0.5 105.2,12.6 	"/>
	<path class="st0" d="M120.4,7.2h0.2l2.7,5.4h1.6L122,7.1c1.3-0.2,1.9-1.3,1.9-3.3c0-1.1-0.3-2.1-0.8-2.6c-0.5-0.6-1.2-0.7-2.1-0.7
		h-1.8v12.1h1.2V7.2L120.4,7.2z M120.5,5.7V2.2h0.3c1.2,0,1.7,0.3,1.7,1.7c0,1.5-0.6,1.7-1.7,1.7H120.5L120.5,5.7z"/>
</g>
</svg>
