<?xml version="1.0" encoding="utf-8"?>
<!-- Generator: Adobe Illustrator 19.1.0, SVG Export Plug-In . SVG Version: 6.00 Build 0)  -->
<svg version="1.1" id="Слой_1" xmlns="http://www.w3.org/2000/svg" xmlns:xlink="http://www.w3.org/1999/xlink" x="0px" y="0px"
	 viewBox="0 0 17.7 14.2" style="enable-background:new 0 0 17.7 14.2;" xml:space="preserve">
<style type="text/css">
	.st0{fill:#FFFFFF;}
</style>
<g>
	<path class="st0" d="M14.3,6.9l-1.2,5.9c-0.3-0.3-0.8-0.5-1.4-0.5c-0.9,0-1.6,0.6-1.5,1.2s0.8,0.8,1.6,0.7c0.8,0,1.4-0.2,1.5-1.2h0
		l1-4.9c0.3,0,0.6,0.3,1,0.6c0.7,0.6,1.7,1,2.3,0.8C16.5,9.2,16.5,7.3,14.3,6.9z"/>
	<g>
		<path class="st0" d="M0.9,2.7l1.5,5.2C2,7.7,1.4,7.7,0.9,8C0.2,8.5-0.2,9.3,0.1,9.8S1.3,10.4,2,9.9c0.6-0.4,1-1,0.9-1.5l0,0
			L1.2,2.5L0.9,2.7z"/>
		<path class="st0" d="M5.7,0.4l1.5,5.2c-0.4-0.2-1-0.1-1.5,0.2C5,6.3,4.6,7,4.9,7.5c0.3,0.5,1.2,0.6,1.9,0.1c0.6-0.4,1-1,0.9-1.5
			l0,0L6,0.3L5.7,0.4z"/>
		<polygon class="st0" points="6.2,0.9 1.1,3.4 0.8,2.5 5.9,0 		"/>
	</g>
</g>
</svg>
