<?xml version="1.0" encoding="utf-8"?>
<!-- Generator: Adobe Illustrator 19.1.0, SVG Export Plug-In . SVG Version: 6.00 Build 0)  -->
<svg version="1.1" id="Слой_1" xmlns="http://www.w3.org/2000/svg" xmlns:xlink="http://www.w3.org/1999/xlink" x="0px" y="0px"
	 viewBox="0 0 18.9 15.4" style="enable-background:new 0 0 18.9 15.4;" xml:space="preserve">
<style type="text/css">
	.st0{fill:#FFFFFF;}
</style>
<path class="st0" d="M18.4,0.3c-0.8,0.4-1.6,0.8-2.5,0.9C15.2,0.5,14.2,0,13.1,0c-2.1,0-3.9,1.7-3.9,3.9c0,0.3,0,0.6,0.1,0.9
	c-3.2-0.2-6.1-1.7-8-4.1C1,1.3,0.8,1.9,0.8,2.7c0,1.3,0.7,2.5,1.7,3.2c-0.6,0-1.2-0.2-1.8-0.5c0,0,0,0,0,0c0,1.9,1.3,3.4,3.1,3.8
	c-0.3,0.1-0.7,0.1-1,0.1c-0.3,0-0.5,0-0.7-0.1C2.6,10.9,4,12,5.7,12c-1.3,1-3,1.7-4.8,1.7c-0.3,0-0.6,0-0.9-0.1
	c1.7,1.1,3.8,1.7,5.9,1.7c7.1,0,11-5.9,11-11c0-0.2,0-0.3,0-0.5c0.8-0.5,1.4-1.2,1.9-2c-0.7,0.3-1.4,0.5-2.2,0.6
	C17.5,2,18.1,1.2,18.4,0.3z"/>
</svg>
